<?xml version="1.0" standalone="no"?>
<!DOCTYPE svg PUBLIC "-//W3C//DTD SVG 20010904//EN"
 "http://www.w3.org/TR/2001/REC-SVG-20010904/DTD/svg10.dtd">
<svg version="1.0" xmlns="http://www.w3.org/2000/svg"
 width="480.000000pt" height="480.000000pt" viewBox="0 0 480.000000 480.000000"
 preserveAspectRatio="xMidYMid meet">
<g transform="translate(0.000000,480.000000) scale(0.100000,-0.100000)"
fill="#000000" stroke="none">
<path d="M2599 4388 c-4 -39 -21 -378 -34 -643 -3 -66 -7 -149 -10 -185 -2
-36 -7 -128 -10 -205 -3 -77 -8 -176 -10 -220 -2 -44 -7 -132 -10 -195 -3 -63
-7 -151 -10 -195 -2 -44 -7 -132 -10 -195 -3 -63 -8 -158 -10 -210 -3 -52 -7
-135 -10 -185 -2 -49 -7 -144 -10 -210 -8 -148 -14 -265 -14 -286 -1 -28 -30
-30 -105 -8 -177 53 -301 150 -371 292 -76 156 -83 221 -84 832 -1 281 -4 528
-7 550 -37 306 -229 474 -541 475 -104 0 -170 -14 -260 -55 -132 -61 -231
-181 -272 -329 -14 -51 -19 -107 -20 -241 l-2 -175 50 0 c46 0 51 2 52 23 6
160 34 299 80 393 57 116 140 177 241 178 99 0 160 -67 172 -190 3 -27 5 -303
6 -614 2 -599 5 -643 52 -790 84 -260 281 -438 586 -529 56 -16 120 -33 144
-36 23 -4 45 -8 48 -10 3 -2 37 -6 75 -10 39 -4 81 -9 94 -10 34 -4 48 -27 46
-77 -6 -103 -16 -300 -20 -383 -6 -101 -12 -241 -20 -423 l-6 -122 301 0 302
0 -6 132 c-7 147 -14 284 -21 398 -2 41 -7 140 -10 220 -4 80 -8 168 -10 195
-5 75 -1 82 58 95 221 53 427 164 580 313 126 123 213 252 281 419 38 92 90
280 100 363 3 28 10 77 15 110 11 75 11 498 0 620 -27 297 -50 384 -118 454
-45 46 -108 73 -182 79 -56 4 -75 1 -120 -20 -97 -44 -157 -125 -166 -224 -7
-68 16 -167 67 -290 193 -465 221 -559 224 -744 2 -110 -6 -176 -36 -280 -40
-139 -138 -306 -230 -389 -58 -54 -160 -117 -249 -155 -102 -43 -216 -73 -229
-60 -8 9 -14 78 -25 314 -3 58 -8 143 -10 190 -9 176 -18 341 -30 605 -3 66
-7 154 -10 195 -2 41 -7 129 -10 195 -3 66 -8 161 -10 210 -3 50 -7 137 -10
195 -3 58 -7 155 -10 215 -3 61 -8 144 -10 185 -2 41 -7 136 -11 210 -8 164
-11 221 -13 238 -1 9 -28 12 -101 12 -73 0 -100 -3 -101 -12z"/>
</g>
</svg>
